<svg width="30" height="18" viewBox="0 0 30 18" fill="none" xmlns="http://www.w3.org/2000/svg">
<path d="M14.0085 11.6983L14.7167 12.4087L15.4249 11.6983L24.9684 2.12578L24.9702 2.12395C25.1469 1.94579 25.3572 1.80438 25.5888 1.70788C25.8204 1.61138 26.0689 1.5617 26.3198 1.5617C26.5707 1.5617 26.8191 1.61138 27.0508 1.70788C27.2824 1.80438 27.4926 1.94579 27.6693 2.12395L27.6693 2.12397L27.6751 2.12975C27.8533 2.30646 27.9947 2.51668 28.0912 2.7483C28.1877 2.97993 28.2374 3.22837 28.2374 3.4793C28.2374 3.73022 28.1877 3.97867 28.0912 4.21029C27.9947 4.44191 27.8533 4.65215 27.6751 4.82884L27.6722 4.83174L16.0691 16.4348L16.0691 16.4348L16.0662 16.4378C15.8895 16.6159 15.6793 16.7573 15.4477 16.8538C15.216 16.9503 14.9676 17 14.7167 17C14.4658 17 14.2173 16.9503 13.9857 16.8538C13.7541 16.7573 13.5438 16.6159 13.3671 16.4378L13.3671 16.4377L13.3642 16.4348L1.76113 4.83174C1.58352 4.65414 1.44264 4.44329 1.34652 4.21124C1.2504 3.97918 1.20093 3.73047 1.20093 3.4793C1.20093 3.22813 1.2504 2.97942 1.34652 2.74736C1.44264 2.51531 1.58352 2.30446 1.76113 2.12686C1.93874 1.94925 2.14959 1.80836 2.38163 1.71224C2.61368 1.61613 2.86239 1.56666 3.11357 1.56666C3.36475 1.56666 3.61346 1.61613 3.84551 1.71224C4.07732 1.80827 4.28798 1.94896 4.46548 2.12632C4.46566 2.1265 4.46584 2.12668 4.46602 2.12686L14.0085 11.6983Z" stroke="#D2D1D1" stroke-width="2"/>
</svg>
