<svg width="18" height="30" viewBox="0 0 18 30" fill="none" xmlns="http://www.w3.org/2000/svg">
<path d="M6.30166 13.8076L5.59133 14.5157L6.30166 15.2239L15.8742 24.7675L15.876 24.7693C16.0542 24.946 16.1956 25.1562 16.2921 25.3879C16.3886 25.6195 16.4383 25.8679 16.4383 26.1189C16.4383 26.3698 16.3886 26.6182 16.2921 26.8498C16.1956 27.0815 16.0542 27.2917 15.876 27.4684L15.876 27.4684L15.8702 27.4742C15.6935 27.6524 15.4833 27.7938 15.2517 27.8903C15.0201 27.9868 14.7716 28.0364 14.5207 28.0364C14.2698 28.0364 14.0213 27.9868 13.7897 27.8903C13.5581 27.7938 13.3479 27.6524 13.1712 27.4742L13.1683 27.4713L1.56515 15.8682L1.56516 15.8682L1.56225 15.8653C1.38409 15.6886 1.24268 15.4784 1.14618 15.2467C1.04968 15.0151 1 14.7667 1 14.5157C1 14.2648 1.04968 14.0164 1.14618 13.7848C1.24268 13.5531 1.38409 13.3429 1.56225 13.1662L1.56225 13.1662L1.56515 13.1633L13.1683 1.5602C13.3459 1.3826 13.5567 1.24171 13.7888 1.14559C14.0208 1.04947 14.2695 1 14.5207 1C14.7719 1 15.0206 1.04947 15.2526 1.14559C15.4847 1.24171 15.6955 1.3826 15.8731 1.5602C16.0508 1.73781 16.1916 1.94866 16.2878 2.18071C16.3839 2.41276 16.4333 2.66147 16.4333 2.91265C16.4333 3.16382 16.3839 3.41254 16.2878 3.64458C16.1917 3.8764 16.051 4.08706 15.8737 4.26456C15.8735 4.26473 15.8733 4.26491 15.8731 4.26509L6.30166 13.8076Z" stroke="black" stroke-width="2"/>
</svg>
