<svg width="18" height="30" viewBox="0 0 18 30" fill="none" xmlns="http://www.w3.org/2000/svg">
<path d="M7.00769 14.5157L16.5802 4.9722C16.8507 4.70173 17.0653 4.38065 17.2116 4.02727C17.358 3.67389 17.4333 3.29514 17.4333 2.91265C17.4333 2.53015 17.358 2.1514 17.2116 1.79802C17.0653 1.44465 16.8507 1.12356 16.5802 0.853094C16.3098 0.58263 15.9887 0.368087 15.6353 0.221713C15.2819 0.0753387 14.9032 0 14.5207 0C14.1382 0 13.7595 0.0753387 13.4061 0.221713C13.0527 0.368087 12.7316 0.58263 12.4611 0.853094L0.858045 12.4562C0.586159 12.7259 0.37036 13.0467 0.223091 13.4002C0.0758226 13.7537 0 14.1328 0 14.5157C0 14.8987 0.0758226 15.2778 0.223091 15.6313C0.37036 15.9848 0.586159 16.3056 0.858045 16.5753L12.4611 28.1784C12.7308 28.4503 13.0516 28.6661 13.4051 28.8134C13.7586 28.9606 14.1378 29.0364 14.5207 29.0364C14.9036 29.0364 15.2828 28.9606 15.6363 28.8134C15.9898 28.6661 16.3106 28.4503 16.5802 28.1784C16.8521 27.9087 17.0679 27.5879 17.2152 27.2344C17.3625 26.8809 17.4383 26.5018 17.4383 26.1189C17.4383 25.7359 17.3625 25.3568 17.2152 25.0033C17.0679 24.6498 16.8521 24.329 16.5802 24.0593L7.00769 14.5157Z" fill="#E10202"/>
</svg>
