<svg width="47" height="36" viewBox="0 0 47 36" fill="none" xmlns="http://www.w3.org/2000/svg">
<path d="M31.2631 18.0527C31.2631 22.1837 27.8135 25.579 23.5 25.579C19.1865 25.579 15.7368 22.1837 15.7368 18.0527C15.7368 13.9217 19.1865 10.5264 23.5 10.5264C27.8135 10.5264 31.2631 13.9217 31.2631 18.0527Z" stroke="black" stroke-width="2"/>
<path d="M9.30696 5.28482H2.4197C1.04418 5.28482 0.920735 6.38349 1.03095 6.93282V32.3121C0.766428 33.6833 2.28744 34.114 3.08101 34.1579H44.2145C45.2895 34.1579 46 32.9737 46 32.3121V6.93282C46 5.56168 44.8096 4.82338 44.2145 4.62562H36.8162C35.2048 4.62562 33.6624 3.97139 32.5424 2.81281C31.4223 1.65423 29.8799 1 28.2685 1H18.3476C16.5958 1 14.9365 1.78643 13.8273 3.14241C12.7181 4.49839 11.0588 5.28482 9.30696 5.28482Z" stroke="black" stroke-width="2"/>
<path d="M35.0525 18.0526C35.0525 24.2843 29.8983 29.3684 23.4999 29.3684C17.1015 29.3684 11.9473 24.2843 11.9473 18.0526C11.9473 11.8209 17.1015 6.73682 23.4999 6.73682C29.8983 6.73682 35.0525 11.8209 35.0525 18.0526Z" stroke="black" stroke-width="2"/>
</svg>
