<svg width="29" height="29" viewBox="0 0 29 29" fill="none" xmlns="http://www.w3.org/2000/svg">
<path d="M19.3869 20.0123C19.2566 20.1437 19.1016 20.2479 18.9308 20.3191C18.76 20.3902 18.5768 20.4269 18.3918 20.4269C18.2068 20.4269 18.0236 20.3902 17.8528 20.3191C17.682 20.2479 17.527 20.1437 17.3967 20.0123L14.1873 16.7888L10.9778 20.0123C10.7139 20.2762 10.356 20.4245 9.98276 20.4245C9.60954 20.4245 9.2516 20.2762 8.98769 20.0123C8.72378 19.7484 8.57552 19.3905 8.57552 19.0172C8.57552 18.644 8.72378 18.2861 8.98769 18.0222L12.2112 14.8127L8.98769 11.6033C8.85633 11.473 8.75207 11.318 8.68091 11.1472C8.60976 10.9764 8.57313 10.7932 8.57313 10.6082C8.57313 10.4232 8.60976 10.24 8.68091 10.0692C8.75207 9.89843 8.85633 9.74342 8.98769 9.61314C9.11798 9.48177 9.27299 9.37751 9.44377 9.30636C9.61456 9.23521 9.79775 9.19857 9.98276 9.19857C10.1678 9.19857 10.351 9.23521 10.5217 9.30636C10.6925 9.37751 10.8475 9.48177 10.9778 9.61314L14.1873 12.8366L17.3967 9.61314C17.527 9.48177 17.682 9.37751 17.8528 9.30636C18.0236 9.23521 18.2068 9.19857 18.3918 9.19857C18.5768 9.19857 18.76 9.23521 18.9308 9.30636C19.1016 9.37751 19.2566 9.48177 19.3869 9.61314C19.5182 9.74342 19.6225 9.89843 19.6936 10.0692C19.7648 10.24 19.8014 10.4232 19.8014 10.6082C19.8014 10.7932 19.7648 10.9764 19.6936 11.1472C19.6225 11.318 19.5182 11.473 19.3869 11.6033L16.1634 14.8127L19.3869 18.0222C19.5182 18.1525 19.6225 18.3075 19.6936 18.4783C19.7648 18.649 19.8014 18.8322 19.8014 19.0172C19.8014 19.2023 19.7648 19.3854 19.6936 19.5562C19.6225 19.727 19.5182 19.882 19.3869 20.0123ZM24.0959 24.7214C22.8031 26.0599 21.2566 27.1276 19.5467 27.8622C17.8368 28.5967 15.9978 28.9833 14.1368 28.9995C12.2759 29.0156 10.4304 28.661 8.70803 27.9563C6.98564 27.2517 5.42083 26.211 4.10492 24.8951C2.789 23.5792 1.74834 22.0144 1.04365 20.292C0.338963 18.5696 -0.0156416 16.7241 0.000529163 14.8632C0.0167 13.0022 0.403323 11.1632 1.13784 9.4533C1.87235 7.74341 2.94005 6.19692 4.27863 4.90407C5.57148 3.56549 7.11796 2.4978 8.82786 1.76328C10.5377 1.02876 12.3768 0.642141 14.2377 0.625971C16.0986 0.6098 17.9441 0.964404 19.6665 1.66909C21.3889 2.37378 22.9537 3.41445 24.2696 4.73036C25.5856 6.04627 26.6262 7.61108 27.3309 9.33348C28.0356 11.0559 28.3902 12.9014 28.374 14.7623C28.3579 16.6232 27.9712 18.4623 27.2367 20.1721C26.5022 21.882 25.4345 23.4285 24.0959 24.7214ZM22.1198 6.8802C20.2867 5.04505 17.874 3.90224 15.2928 3.64649C12.7116 3.39074 10.1215 4.03786 7.96392 5.47761C5.80633 6.91735 4.21467 9.06065 3.46011 11.5423C2.70556 14.024 2.83481 16.6905 3.82582 19.0876C4.81684 21.4847 6.60832 23.464 8.89504 24.6883C11.1818 25.9127 13.8222 26.3063 16.3666 25.8021C18.911 25.2979 21.2019 23.9271 22.8489 21.9233C24.496 19.9195 25.3973 17.4066 25.3993 14.8127C25.4043 13.3393 25.117 11.8796 24.5541 10.518C23.9912 9.15635 23.1638 7.91991 22.1198 6.8802Z" fill="black"/>
</svg>
