<svg width="116" height="34" viewBox="0 0 116 34" fill="none" xmlns="http://www.w3.org/2000/svg">
<path d="M35.712 10.49V12.164H30.402V15.854H34.542V17.528H30.402V23H28.35V10.49H35.712ZM36.9297 17.996C36.9297 17 37.1337 16.118 37.5417 15.35C37.9617 14.582 38.5257 13.988 39.2337 13.568C39.9537 13.136 40.7457 12.92 41.6097 12.92C42.3897 12.92 43.0677 13.076 43.6437 13.388C44.2317 13.688 44.6997 14.066 45.0477 14.522V13.082H47.1177V23H45.0477V21.524C44.6997 21.992 44.2257 22.382 43.6257 22.694C43.0257 23.006 42.3417 23.162 41.5737 23.162C40.7217 23.162 39.9417 22.946 39.2337 22.514C38.5257 22.07 37.9617 21.458 37.5417 20.678C37.1337 19.886 36.9297 18.992 36.9297 17.996ZM45.0477 18.032C45.0477 17.348 44.9037 16.754 44.6157 16.25C44.3397 15.746 43.9737 15.362 43.5177 15.098C43.0617 14.834 42.5697 14.702 42.0417 14.702C41.5137 14.702 41.0217 14.834 40.5657 15.098C40.1097 15.35 39.7377 15.728 39.4497 16.232C39.1737 16.724 39.0357 17.312 39.0357 17.996C39.0357 18.68 39.1737 19.28 39.4497 19.796C39.7377 20.312 40.1097 20.708 40.5657 20.984C41.0337 21.248 41.5257 21.38 42.0417 21.38C42.5697 21.38 43.0617 21.248 43.5177 20.984C43.9737 20.72 44.3397 20.336 44.6157 19.832C44.9037 19.316 45.0477 18.716 45.0477 18.032ZM49.1289 18.032C49.1289 17.012 49.3329 16.118 49.7409 15.35C50.1609 14.57 50.7369 13.97 51.4689 13.55C52.2009 13.13 53.0409 12.92 53.9889 12.92C55.1889 12.92 56.1789 13.208 56.9589 13.784C57.7509 14.348 58.2849 15.158 58.5609 16.214H56.3469C56.1669 15.722 55.8789 15.338 55.4829 15.062C55.0869 14.786 54.5889 14.648 53.9889 14.648C53.1489 14.648 52.4769 14.948 51.9729 15.548C51.4809 16.136 51.2349 16.964 51.2349 18.032C51.2349 19.1 51.4809 19.934 51.9729 20.534C52.4769 21.134 53.1489 21.434 53.9889 21.434C55.1769 21.434 55.9629 20.912 56.3469 19.868H58.5609C58.2729 20.876 57.7329 21.68 56.9409 22.28C56.1489 22.868 55.1649 23.162 53.9889 23.162C53.0409 23.162 52.2009 22.952 51.4689 22.532C50.7369 22.1 50.1609 21.5 49.7409 20.732C49.3329 19.952 49.1289 19.052 49.1289 18.032ZM69.6959 17.798C69.6959 18.17 69.6719 18.506 69.6239 18.806H62.0459C62.1059 19.598 62.3999 20.234 62.9279 20.714C63.4559 21.194 64.1039 21.434 64.8719 21.434C65.9759 21.434 66.7559 20.972 67.2119 20.048H69.4259C69.1259 20.96 68.5799 21.71 67.7879 22.298C67.0079 22.874 66.0359 23.162 64.8719 23.162C63.9239 23.162 63.0719 22.952 62.3159 22.532C61.5719 22.1 60.9839 21.5 60.5519 20.732C60.1319 19.952 59.9219 19.052 59.9219 18.032C59.9219 17.012 60.1259 16.118 60.5339 15.35C60.9539 14.57 61.5359 13.97 62.2799 13.55C63.0359 13.13 63.8999 12.92 64.8719 12.92C65.8079 12.92 66.6419 13.124 67.3739 13.532C68.1059 13.94 68.6759 14.516 69.0839 15.26C69.4919 15.992 69.6959 16.838 69.6959 17.798ZM67.5539 17.15C67.5419 16.394 67.2719 15.788 66.7439 15.332C66.2159 14.876 65.5619 14.648 64.7819 14.648C64.0739 14.648 63.4679 14.876 62.9639 15.332C62.4599 15.776 62.1599 16.382 62.0639 17.15H67.5539ZM73.7672 14.558C74.1152 14.078 74.5892 13.688 75.1892 13.388C75.8012 13.076 76.4792 12.92 77.2232 12.92C78.0992 12.92 78.8912 13.13 79.5992 13.55C80.3072 13.97 80.8652 14.57 81.2732 15.35C81.6812 16.118 81.8852 17 81.8852 17.996C81.8852 18.992 81.6812 19.886 81.2732 20.678C80.8652 21.458 80.3012 22.07 79.5812 22.514C78.8732 22.946 78.0872 23.162 77.2232 23.162C76.4552 23.162 75.7712 23.012 75.1712 22.712C74.5832 22.412 74.1152 22.028 73.7672 21.56V23H71.7152V9.68H73.7672V14.558ZM79.7972 17.996C79.7972 17.312 79.6532 16.724 79.3652 16.232C79.0892 15.728 78.7172 15.35 78.2492 15.098C77.7932 14.834 77.3012 14.702 76.7732 14.702C76.2572 14.702 75.7652 14.834 75.2972 15.098C74.8412 15.362 74.4692 15.746 74.1812 16.25C73.9052 16.754 73.7672 17.348 73.7672 18.032C73.7672 18.716 73.9052 19.316 74.1812 19.832C74.4692 20.336 74.8412 20.72 75.2972 20.984C75.7652 21.248 76.2572 21.38 76.7732 21.38C77.3012 21.38 77.7932 21.248 78.2492 20.984C78.7172 20.708 79.0892 20.312 79.3652 19.796C79.6532 19.28 79.7972 18.68 79.7972 17.996ZM88.2165 23.162C87.2805 23.162 86.4345 22.952 85.6785 22.532C84.9225 22.1 84.3285 21.5 83.8965 20.732C83.4645 19.952 83.2485 19.052 83.2485 18.032C83.2485 17.024 83.4705 16.13 83.9145 15.35C84.3585 14.57 84.9645 13.97 85.7325 13.55C86.5005 13.13 87.3585 12.92 88.3065 12.92C89.2545 12.92 90.1125 13.13 90.8805 13.55C91.6485 13.97 92.2545 14.57 92.6985 15.35C93.1425 16.13 93.3645 17.024 93.3645 18.032C93.3645 19.04 93.1365 19.934 92.6805 20.714C92.2245 21.494 91.6005 22.1 90.8085 22.532C90.0285 22.952 89.1645 23.162 88.2165 23.162ZM88.2165 21.38C88.7445 21.38 89.2365 21.254 89.6925 21.002C90.1605 20.75 90.5385 20.372 90.8265 19.868C91.1145 19.364 91.2585 18.752 91.2585 18.032C91.2585 17.312 91.1205 16.706 90.8445 16.214C90.5685 15.71 90.2025 15.332 89.7465 15.08C89.2905 14.828 88.7985 14.702 88.2705 14.702C87.7425 14.702 87.2505 14.828 86.7945 15.08C86.3505 15.332 85.9965 15.71 85.7325 16.214C85.4685 16.706 85.3365 17.312 85.3365 18.032C85.3365 19.1 85.6065 19.928 86.1465 20.516C86.6985 21.092 87.3885 21.38 88.2165 21.38ZM99.695 23.162C98.759 23.162 97.913 22.952 97.157 22.532C96.401 22.1 95.807 21.5 95.375 20.732C94.943 19.952 94.727 19.052 94.727 18.032C94.727 17.024 94.949 16.13 95.393 15.35C95.837 14.57 96.443 13.97 97.211 13.55C97.979 13.13 98.837 12.92 99.785 12.92C100.733 12.92 101.591 13.13 102.359 13.55C103.127 13.97 103.733 14.57 104.177 15.35C104.621 16.13 104.843 17.024 104.843 18.032C104.843 19.04 104.615 19.934 104.159 20.714C103.703 21.494 103.079 22.1 102.287 22.532C101.507 22.952 100.643 23.162 99.695 23.162ZM99.695 21.38C100.223 21.38 100.715 21.254 101.171 21.002C101.639 20.75 102.017 20.372 102.305 19.868C102.593 19.364 102.737 18.752 102.737 18.032C102.737 17.312 102.599 16.706 102.323 16.214C102.047 15.71 101.681 15.332 101.225 15.08C100.769 14.828 100.277 14.702 99.749 14.702C99.221 14.702 98.729 14.828 98.273 15.08C97.829 15.332 97.475 15.71 97.211 16.214C96.947 16.706 96.815 17.312 96.815 18.032C96.815 19.1 97.085 19.928 97.625 20.516C98.177 21.092 98.867 21.38 99.695 21.38ZM110.795 18.05L115.367 23H112.595L108.923 18.734V23H106.871V9.68H108.923V17.42L112.523 13.082H115.367L110.795 18.05Z" fill="black"/>
<path d="M14.1829 5.5332H17.3161V0.233376C15.7991 0.0756258 14.2748 -0.00225706 12.7496 4.97719e-05C8.21639 4.97719e-05 5.1165 2.76662 5.1165 7.83312V12.1996H0V18.1328H5.1165V33.3323H11.2496V18.1328H16.3495L17.1161 12.1996H11.2496V8.41644C11.2496 6.6665 11.7163 5.5332 14.1829 5.5332Z" fill="black"/>
</svg>
