<svg width="108" height="35" viewBox="0 0 108 35" fill="none" xmlns="http://www.w3.org/2000/svg">
<path d="M53.404 15.09C53.08 14.466 52.63 13.998 52.054 13.686C51.478 13.362 50.812 13.2 50.056 13.2C49.228 13.2 48.49 13.386 47.842 13.758C47.194 14.13 46.684 14.658 46.312 15.342C45.952 16.026 45.772 16.818 45.772 17.718C45.772 18.618 45.952 19.416 46.312 20.112C46.684 20.796 47.194 21.324 47.842 21.696C48.49 22.068 49.228 22.254 50.056 22.254C51.172 22.254 52.078 21.942 52.774 21.318C53.47 20.694 53.896 19.848 54.052 18.78H49.354V17.142H56.248V18.744C56.116 19.716 55.768 20.61 55.204 21.426C54.652 22.242 53.926 22.896 53.026 23.388C52.138 23.868 51.148 24.108 50.056 24.108C48.88 24.108 47.806 23.838 46.834 23.298C45.862 22.746 45.088 21.984 44.512 21.012C43.948 20.04 43.666 18.942 43.666 17.718C43.666 16.494 43.948 15.396 44.512 14.424C45.088 13.452 45.862 12.696 46.834 12.156C47.818 11.604 48.892 11.328 50.056 11.328C51.388 11.328 52.57 11.658 53.602 12.318C54.646 12.966 55.402 13.89 55.87 15.09H53.404ZM62.5739 24.162C61.6379 24.162 60.7919 23.952 60.0359 23.532C59.2799 23.1 58.6859 22.5 58.2539 21.732C57.8219 20.952 57.6059 20.052 57.6059 19.032C57.6059 18.024 57.8279 17.13 58.2719 16.35C58.7159 15.57 59.3219 14.97 60.0899 14.55C60.8579 14.13 61.7159 13.92 62.6639 13.92C63.6119 13.92 64.4699 14.13 65.2379 14.55C66.0059 14.97 66.6119 15.57 67.0559 16.35C67.4999 17.13 67.7219 18.024 67.7219 19.032C67.7219 20.04 67.4939 20.934 67.0379 21.714C66.5819 22.494 65.9579 23.1 65.1659 23.532C64.3859 23.952 63.5219 24.162 62.5739 24.162ZM62.5739 22.38C63.1019 22.38 63.5939 22.254 64.0499 22.002C64.5179 21.75 64.8959 21.372 65.1839 20.868C65.4719 20.364 65.6159 19.752 65.6159 19.032C65.6159 18.312 65.4779 17.706 65.2019 17.214C64.9259 16.71 64.5599 16.332 64.1039 16.08C63.6479 15.828 63.1559 15.702 62.6279 15.702C62.0999 15.702 61.6079 15.828 61.1519 16.08C60.7079 16.332 60.3539 16.71 60.0899 17.214C59.8259 17.706 59.6939 18.312 59.6939 19.032C59.6939 20.1 59.9639 20.928 60.5039 21.516C61.0559 22.092 61.7459 22.38 62.5739 22.38ZM74.0524 24.162C73.1164 24.162 72.2704 23.952 71.5144 23.532C70.7584 23.1 70.1644 22.5 69.7324 21.732C69.3004 20.952 69.0844 20.052 69.0844 19.032C69.0844 18.024 69.3064 17.13 69.7504 16.35C70.1944 15.57 70.8004 14.97 71.5684 14.55C72.3364 14.13 73.1944 13.92 74.1424 13.92C75.0904 13.92 75.9484 14.13 76.7164 14.55C77.4844 14.97 78.0904 15.57 78.5344 16.35C78.9784 17.13 79.2004 18.024 79.2004 19.032C79.2004 20.04 78.9724 20.934 78.5164 21.714C78.0604 22.494 77.4364 23.1 76.6444 23.532C75.8644 23.952 75.0004 24.162 74.0524 24.162ZM74.0524 22.38C74.5804 22.38 75.0724 22.254 75.5284 22.002C75.9964 21.75 76.3744 21.372 76.6624 20.868C76.9504 20.364 77.0944 19.752 77.0944 19.032C77.0944 18.312 76.9564 17.706 76.6804 17.214C76.4044 16.71 76.0384 16.332 75.5824 16.08C75.1264 15.828 74.6344 15.702 74.1064 15.702C73.5784 15.702 73.0864 15.828 72.6304 16.08C72.1864 16.332 71.8324 16.71 71.5684 17.214C71.3044 17.706 71.1724 18.312 71.1724 19.032C71.1724 20.1 71.4424 20.928 71.9824 21.516C72.5344 22.092 73.2244 22.38 74.0524 22.38ZM85.2249 13.92C85.9929 13.92 86.6709 14.076 87.2589 14.388C87.8589 14.688 88.3269 15.066 88.6629 15.522V14.082H90.7329V24.162C90.7329 25.074 90.5409 25.884 90.1569 26.592C89.7729 27.312 89.2149 27.876 88.4829 28.284C87.7629 28.692 86.8989 28.896 85.8909 28.896C84.5469 28.896 83.4309 28.578 82.5429 27.942C81.6549 27.318 81.1509 26.466 81.0309 25.386H83.0649C83.2209 25.902 83.5509 26.316 84.0549 26.628C84.5709 26.952 85.1829 27.114 85.8909 27.114C86.7189 27.114 87.3849 26.862 87.8889 26.358C88.4049 25.854 88.6629 25.122 88.6629 24.162V22.506C88.3149 22.974 87.8409 23.37 87.2409 23.694C86.6529 24.006 85.9809 24.162 85.2249 24.162C84.3609 24.162 83.5689 23.946 82.8489 23.514C82.1409 23.07 81.5769 22.458 81.1569 21.678C80.7489 20.886 80.5449 19.992 80.5449 18.996C80.5449 18 80.7489 17.118 81.1569 16.35C81.5769 15.582 82.1409 14.988 82.8489 14.568C83.5689 14.136 84.3609 13.92 85.2249 13.92ZM88.6629 19.032C88.6629 18.348 88.5189 17.754 88.2309 17.25C87.9549 16.746 87.5889 16.362 87.1329 16.098C86.6769 15.834 86.1849 15.702 85.6569 15.702C85.1289 15.702 84.6369 15.834 84.1809 16.098C83.7249 16.35 83.3529 16.728 83.0649 17.232C82.7889 17.724 82.6509 18.312 82.6509 18.996C82.6509 19.68 82.7889 20.28 83.0649 20.796C83.3529 21.312 83.7249 21.708 84.1809 21.984C84.6489 22.248 85.1409 22.38 85.6569 22.38C86.1849 22.38 86.6769 22.248 87.1329 21.984C87.5889 21.72 87.9549 21.336 88.2309 20.832C88.5189 20.316 88.6629 19.716 88.6629 19.032ZM95.4801 10.68V24H93.4281V10.68H95.4801ZM107.264 18.798C107.264 19.17 107.24 19.506 107.192 19.806H99.6142C99.6742 20.598 99.9682 21.234 100.496 21.714C101.024 22.194 101.672 22.434 102.44 22.434C103.544 22.434 104.324 21.972 104.78 21.048H106.994C106.694 21.96 106.148 22.71 105.356 23.298C104.576 23.874 103.604 24.162 102.44 24.162C101.492 24.162 100.64 23.952 99.8842 23.532C99.1402 23.1 98.5522 22.5 98.1202 21.732C97.7002 20.952 97.4902 20.052 97.4902 19.032C97.4902 18.012 97.6942 17.118 98.1022 16.35C98.5222 15.57 99.1042 14.97 99.8482 14.55C100.604 14.13 101.468 13.92 102.44 13.92C103.376 13.92 104.21 14.124 104.942 14.532C105.674 14.94 106.244 15.516 106.652 16.26C107.06 16.992 107.264 17.838 107.264 18.798ZM105.122 18.15C105.11 17.394 104.84 16.788 104.312 16.332C103.784 15.876 103.13 15.648 102.35 15.648C101.642 15.648 101.036 15.876 100.532 16.332C100.028 16.776 99.7282 17.382 99.6322 18.15H105.122Z" fill="black"/>
<path d="M17.1911 6.83846C19.6346 6.79736 21.9958 7.72106 23.7628 9.40929L28.6935 4.4786C25.5818 1.55613 21.4597 -0.0484632 17.1911 0.00111562C10.6913 -0.00137708 4.74629 3.66361 1.82861 9.47181L7.57199 13.9258C8.9263 9.7447 12.7965 6.89314 17.1911 6.83846Z" fill="black"/>
<path d="M1.82851 9.47174C-0.609503 14.3299 -0.609503 20.0542 1.82851 24.9124L7.5718 20.4584C6.85301 18.3402 6.85301 16.044 7.5718 13.9258L1.82851 9.47174Z" fill="black"/>
<path d="M23.0127 25.9049C18.1923 28.9989 11.7764 27.5994 8.68232 22.7791C8.21731 22.0546 7.8443 21.275 7.5719 20.4584L1.82861 24.9124C4.74624 30.7206 10.6913 34.3856 17.1911 34.3831C21.3759 34.4966 25.4459 33.0067 28.5684 30.2182L23.0127 25.9049Z" fill="black"/>
<path d="M33.3822 14.0665H17.1914V20.7163H26.4432C26.0564 22.8418 24.8171 24.7165 23.0129 25.9049L28.5686 30.2184C31.9901 26.923 33.8532 22.3307 33.6947 17.5829C33.6957 16.4037 33.5911 15.227 33.3822 14.0665Z" fill="black"/>
</svg>
