<svg width="45" height="45" viewBox="0 0 45 45" fill="none" xmlns="http://www.w3.org/2000/svg">
<path d="M22.5 0C18.0499 0 13.6998 1.3196 9.99968 3.79193C6.29957 6.26426 3.41569 9.77828 1.71272 13.8896C0.00974889 18.001 -0.435826 22.525 0.432341 26.8895C1.30051 31.2541 3.44342 35.2632 6.59011 38.4099C9.73679 41.5566 13.7459 43.6995 18.1105 44.5677C22.475 45.4358 26.999 44.9902 31.1104 43.2873C35.2217 41.5843 38.7357 38.7004 41.2081 35.0003C43.6804 31.3002 45 26.9501 45 22.5C44.9932 16.5347 42.6205 10.8157 38.4024 6.59763C34.1843 2.37954 28.4653 0.00682448 22.5 0ZM22.5 40.5C18.9399 40.5 15.4598 39.4443 12.4997 37.4664C9.53966 35.4886 7.23255 32.6774 5.87018 29.3883C4.5078 26.0992 4.15134 22.48 4.84587 18.9884C5.54041 15.4967 7.25474 12.2894 9.77208 9.77207C12.2894 7.25473 15.4967 5.5404 18.9884 4.84586C22.48 4.15133 26.0992 4.50779 29.3883 5.87017C32.6774 7.23254 35.4886 9.53965 37.4664 12.4997C39.4443 15.4598 40.5 18.9399 40.5 22.5C40.4945 27.2722 38.5964 31.8474 35.2219 35.2219C31.8474 38.5963 27.2722 40.4945 22.5 40.5ZM22.5 9C22.2045 8.99992 21.9119 9.05807 21.6389 9.17111C21.3659 9.28416 21.1178 9.44989 20.9088 9.65884C20.6999 9.86778 20.5342 10.1159 20.4211 10.3889C20.3081 10.6619 20.2499 10.9545 20.25 11.25V21.9352L17.1409 27.735C16.8591 28.2612 16.7979 28.8778 16.9708 29.4491C17.1437 30.0205 17.5364 30.4997 18.0626 30.7815C18.5889 31.0633 19.2055 31.1244 19.7768 30.9516C20.3481 30.7787 20.8274 30.386 21.1091 29.8597L24.4841 23.5624C24.6584 23.2354 24.7497 22.8705 24.75 22.5V11.25C24.7501 10.9545 24.6919 10.6619 24.5789 10.3889C24.4658 10.1159 24.3001 9.86778 24.0912 9.65884C23.8822 9.44989 23.6341 9.28416 23.3611 9.17111C23.0881 9.05807 22.7955 8.99992 22.5 9Z" fill="white"/>
</svg>
