<svg width="28" height="35" viewBox="0 0 28 35" fill="none" xmlns="http://www.w3.org/2000/svg">
<path d="M13.8854 20.1085L13.8971 20.1086L13.9088 20.1085C14.2334 20.1047 14.5513 20.2004 14.8198 20.3828C15.0883 20.5651 15.2945 20.8254 15.4106 21.1285C15.5267 21.4315 15.5472 21.7629 15.4693 22.078C15.3914 22.3931 15.2188 22.6767 14.9748 22.8908L14.6343 23.1895V23.6425V26.0571C14.6343 26.2526 14.5566 26.4401 14.4184 26.5784C14.2801 26.7166 14.0926 26.7943 13.8971 26.7943C13.7016 26.7943 13.5141 26.7166 13.3759 26.5784C13.2377 26.4401 13.16 26.2526 13.16 26.0571V23.6425V23.1895L12.8194 22.8908C12.5755 22.6767 12.4029 22.3931 12.325 22.078C12.2471 21.7629 12.2676 21.4315 12.3837 21.1285C12.4998 20.8254 12.706 20.5651 12.9745 20.3828C13.243 20.2004 13.5609 20.1047 13.8854 20.1085ZM21.5828 12.16V13.16H22.5828C23.6998 13.16 24.771 13.6037 25.5608 14.3935C26.3506 15.1833 26.7943 16.2545 26.7943 17.3714V29.5314C26.7943 30.6484 26.3506 31.7195 25.5608 32.5093C24.771 33.2991 23.6998 33.7428 22.5828 33.7428H5.21143C4.09449 33.7428 3.02329 33.2991 2.2335 32.5093C1.4437 31.7195 1 30.6484 1 29.5314V17.3714C1 16.2545 1.4437 15.1833 2.2335 14.3935C3.02329 13.6037 4.09449 13.16 5.21143 13.16H6.21143V12.16V8.68571C6.21143 6.64733 7.02117 4.69244 8.46252 3.25109C9.90387 1.80974 11.8588 1 13.8971 1C15.9355 1 17.8904 1.80974 19.3318 3.25109C20.7731 4.69244 21.5828 6.64733 21.5828 8.68571V12.16ZM19.1086 13.16H20.1086V12.16V8.68571C20.1086 7.03834 19.4541 5.45844 18.2893 4.29357C17.1244 3.1287 15.5445 2.47428 13.8971 2.47428C12.2498 2.47428 10.6699 3.1287 9.50499 4.29357C8.34013 5.45844 7.68571 7.03834 7.68571 8.68571V12.16V13.16H8.68571H19.1086ZM24.5183 31.4669C25.0316 30.9536 25.32 30.2573 25.32 29.5314V17.3714C25.32 16.6455 25.0316 15.9493 24.5183 15.436C24.005 14.9227 23.3088 14.6343 22.5828 14.6343H5.21143C4.48549 14.6343 3.78929 14.9227 3.27597 15.436C2.76266 15.9493 2.47428 16.6455 2.47428 17.3714V29.5314C2.47428 30.2573 2.76266 30.9536 3.27597 31.4669C3.78929 31.9802 4.48549 32.2686 5.21143 32.2686H22.5828C23.3088 32.2686 24.005 31.9802 24.5183 31.4669Z" stroke="#C2C1C1" stroke-width="2"/>
</svg>
