<svg width="13" height="15" viewBox="0 0 13 15" fill="none" xmlns="http://www.w3.org/2000/svg">
<path d="M2.60989 8.81052L9.38783 12.7538L9.39273 12.7566L9.39274 12.7566C9.63668 12.8949 9.91228 12.9675 10.1927 12.9675C10.4731 12.9675 10.7487 12.8949 10.9926 12.7566L10.9961 12.7546C11.2404 12.6136 11.4432 12.4107 11.5843 12.1664C11.7253 11.9221 11.7995 11.645 11.7995 11.3629L2.60989 8.81052ZM2.60989 8.81052V8.83803L1.86003 8.40545C1.61564 8.26446 1.41268 8.0616 1.27156 7.81728C1.13045 7.57296 1.05615 7.29579 1.05615 7.01364C1.05615 6.73149 1.13045 6.45432 1.27156 6.21C1.41263 5.96576 1.61551 5.76296 1.85979 5.62197C1.85987 5.62193 1.85995 5.62188 1.86003 5.62183L9.38917 1.2727L9.38912 1.2726L9.39849 1.26745C9.63903 1.13528 9.908 1.0633 10.1824 1.05767L10.1914 1.05749L10.2005 1.05763C10.4767 1.06195 10.7475 1.13443 10.989 1.26864L10.989 1.26858L10.9961 1.27265C11.2404 1.4137 11.4432 1.61658 11.5843 1.8609C11.7253 2.10519 11.7995 2.3823 11.7995 2.66437C11.7995 2.6644 11.7995 2.66443 11.7995 2.66446V11.3628L2.60989 8.81052ZM9.10986 0.790225L9.10986 0.790227L9.10858 0.790965L1.83045 4.96496V5.026L1.5809 5.17043C1.25221 5.36066 0.979327 5.63398 0.789616 5.96297C0.599905 6.29196 0.500041 6.66505 0.500041 7.04482C0.500041 7.42459 0.599905 7.79768 0.789616 8.12667C0.979189 8.45542 1.25182 8.72858 1.58019 8.91879C1.58042 8.91893 1.58066 8.91907 1.5809 8.91921L9.10858 13.2363L9.10995 13.2371C9.43925 13.4274 9.81269 13.5279 10.193 13.5286C10.7672 13.5285 11.318 13.3004 11.724 12.8943L12.0776 13.2478L11.724 12.8943C12.1302 12.4881 12.3584 11.9373 12.3584 11.3629V2.69555H12.3583L12.3584 2.68995C12.3627 2.30774 12.2657 1.93121 12.0774 1.59861C11.8891 1.266 11.6161 0.989155 11.2861 0.796202C10.9562 0.603249 10.581 0.501058 10.1988 0.500008C9.81656 0.498958 9.44087 0.599087 9.10986 0.790225Z" stroke="white"/>
</svg>
