<svg width="18" height="30" viewBox="0 0 18 30" fill="none" xmlns="http://www.w3.org/2000/svg">
<path d="M10.9923 15.4843L1.41975 25.0278C1.14929 25.2983 0.934739 25.6194 0.788365 25.9727C0.641991 26.3261 0.566656 26.7049 0.566656 27.0874C0.566656 27.4698 0.641991 27.8486 0.788365 28.202C0.934738 28.5554 1.14929 28.8764 1.41975 29.1469C1.69021 29.4174 2.0113 29.6319 2.36468 29.7783C2.71806 29.9247 3.09681 30 3.4793 30C3.86179 30 4.24054 29.9247 4.59392 29.7783C4.9473 29.6319 5.26839 29.4174 5.53885 29.1469L17.142 17.5438C17.4138 17.2741 17.6296 16.9533 17.7769 16.5998C17.9242 16.2463 18 15.8672 18 15.4843C18 15.1013 17.9242 14.7222 17.7769 14.3687C17.6296 14.0152 17.4138 13.6944 17.142 13.4247L5.53885 1.8216C5.26919 1.54971 4.94836 1.33391 4.59487 1.18664C4.24139 1.03937 3.86224 0.963551 3.4793 0.963551C3.09637 0.963551 2.71722 1.03937 2.36373 1.18664C2.01024 1.33391 1.68942 1.54971 1.41975 1.8216C1.14787 2.09126 0.932063 2.41209 0.784794 2.76558C0.637526 3.11906 0.561705 3.49821 0.561705 3.88115C0.561705 4.26408 0.637526 4.64323 0.784794 4.99672C0.932062 5.3502 1.14787 5.67103 1.41975 5.9407L10.9923 15.4843Z" fill="#E10202"/>
</svg>
