<svg width="112" height="30" viewBox="0 0 112 30" fill="none" xmlns="http://www.w3.org/2000/svg">
<path d="M11.3197 29.28C9.26635 29.28 7.42635 28.9467 5.79969 28.28C4.17302 27.6133 2.86635 26.6267 1.87969 25.32C0.919688 24.0133 0.413021 22.44 0.359688 20.6H7.63969C7.74635 21.64 8.10635 22.44 8.71969 23C9.33302 23.5333 10.133 23.8 11.1197 23.8C12.133 23.8 12.933 23.5733 13.5197 23.12C14.1064 22.64 14.3997 21.9867 14.3997 21.16C14.3997 20.4667 14.1597 19.8933 13.6797 19.44C13.2264 18.9867 12.653 18.6133 11.9597 18.32C11.293 18.0267 10.333 17.6933 9.07969 17.32C7.26635 16.76 5.78635 16.2 4.63969 15.64C3.49302 15.08 2.50635 14.2533 1.67969 13.16C0.853021 12.0667 0.439688 10.64 0.439688 8.88C0.439688 6.26667 1.38635 4.22667 3.27969 2.76C5.17302 1.26667 7.63969 0.52 10.6797 0.52C13.773 0.52 16.2664 1.26667 18.1597 2.76C20.053 4.22667 21.0664 6.28 21.1997 8.92H13.7997C13.7464 8.01333 13.413 7.30667 12.7997 6.8C12.1864 6.26667 11.3997 6 10.4397 6C9.61302 6 8.94635 6.22667 8.43969 6.68C7.93302 7.10666 7.67969 7.73333 7.67969 8.56C7.67969 9.46667 8.10635 10.1733 8.95969 10.68C9.81302 11.1867 11.1464 11.7333 12.9597 12.32C14.773 12.9333 16.2397 13.52 17.3597 14.08C18.5064 14.64 19.493 15.4533 20.3197 16.52C21.1464 17.5867 21.5597 18.96 21.5597 20.64C21.5597 22.24 21.1464 23.6933 20.3197 25C19.5197 26.3067 18.3464 27.3467 16.7997 28.12C15.253 28.8933 13.4264 29.28 11.3197 29.28ZM32.6091 0.919999V29H25.7691V0.919999H32.6091ZM56.2059 9.8C55.6993 8.86667 54.9659 8.16 54.0059 7.68C53.0726 7.17333 51.9659 6.92 50.6859 6.92C48.4726 6.92 46.6993 7.65333 45.3659 9.12C44.0326 10.56 43.3659 12.4933 43.3659 14.92C43.3659 17.5067 44.0593 19.5333 45.4459 21C46.8593 22.44 48.7926 23.16 51.2459 23.16C52.9259 23.16 54.3393 22.7333 55.4859 21.88C56.6593 21.0267 57.5126 19.8 58.0459 18.2H49.3659V13.16H64.2459V19.52C63.7393 21.2267 62.8726 22.8133 61.6459 24.28C60.4459 25.7467 58.9126 26.9333 57.0459 27.84C55.1793 28.7467 53.0726 29.2 50.7259 29.2C47.9526 29.2 45.4726 28.6 43.2859 27.4C41.1259 26.1733 39.4326 24.48 38.2059 22.32C37.0059 20.16 36.4059 17.6933 36.4059 14.92C36.4059 12.1467 37.0059 9.68 38.2059 7.52C39.4326 5.33333 41.1259 3.64 43.2859 2.44C45.4459 1.21333 47.9126 0.599998 50.6859 0.599998C54.0459 0.599998 56.8726 1.41333 59.1659 3.04C61.4859 4.66667 63.0193 6.92 63.7659 9.8H56.2059ZM102.468 24.04H91.9878L90.3078 29H83.1478L93.3078 0.919999H101.228L111.388 29H104.148L102.468 24.04ZM100.708 18.76L97.2278 8.48L93.7878 18.76H100.708Z" fill="black"/>
</svg>
