<svg width="65" height="44" viewBox="0 0 65 44" fill="none" xmlns="http://www.w3.org/2000/svg">
<mask id="path-1-inside-1_10_38" fill="white">
<path d="M22.4249 43.3123C21.8169 43.3129 21.2147 43.2029 20.653 42.9885C20.0913 42.7741 19.5811 42.4596 19.1518 42.063L1.37465 25.6915C0.940757 25.2965 0.595942 24.8264 0.360033 24.3082C0.124124 23.79 0.00177415 23.234 1.91522e-05 22.6721C-0.00173584 22.1102 0.117139 21.5535 0.349807 21.0341C0.582476 20.5147 0.924346 20.0427 1.35576 19.6454C1.78718 19.2481 2.29963 18.9332 2.86364 18.7189C3.42765 18.5046 4.0321 18.3951 4.64223 18.3967C5.25235 18.3983 5.85612 18.5109 6.41881 18.7282C6.9815 18.9454 7.492 19.2629 7.92097 19.6625L22.4249 33.0195L56.9305 1.24233C57.7992 0.445588 58.9758 -0.001204 60.2018 2.43689e-06C61.4279 0.00120887 62.6034 0.450314 63.4703 1.24877C64.3372 2.04722 64.8248 3.12979 64.826 4.25893C64.8272 5.38806 64.342 6.47152 63.4768 7.27155L25.6981 42.0634C25.2688 42.4599 24.7586 42.7743 24.1969 42.9886C23.6351 43.2029 23.033 43.3129 22.4249 43.3123Z"/>
</mask>
<path d="M22.4249 43.3123L22.4383 31.3123L22.4253 31.3123L22.4124 31.3123L22.4249 43.3123ZM19.1518 42.063L27.2941 33.2481L27.2875 33.242L27.2809 33.2359L19.1518 42.063ZM1.37465 25.6915L9.50377 16.8645L9.4786 16.8413L9.45331 16.8182L1.37465 25.6915ZM7.92097 19.6625L-0.258033 28.4434L-0.233146 28.4665L-0.208128 28.4896L7.92097 19.6625ZM22.4249 33.0195L14.2958 41.8466L22.425 49.333L30.5541 41.8466L22.4249 33.0195ZM56.9305 1.24233L48.8198 -7.60169L48.8105 -7.59323L48.8013 -7.58474L56.9305 1.24233ZM63.4703 1.24877L55.3408 10.0755L63.4703 1.24877ZM63.4768 7.27155L71.606 16.0986L71.6148 16.0904L71.6237 16.0822L63.4768 7.27155ZM25.6981 42.0634L17.569 33.2363L17.563 33.2419L17.557 33.2474L25.6981 42.0634ZM22.4124 31.3123C23.254 31.3114 24.1076 31.4627 24.9319 31.7773L16.3741 54.1997C18.3218 54.943 20.3797 55.3144 22.4375 55.3123L22.4124 31.3123ZM24.9319 31.7773C25.7569 32.0922 26.5675 32.577 27.2941 33.2481L11.0094 50.8779C12.5946 52.3422 14.4256 53.456 16.3741 54.1997L24.9319 31.7773ZM27.2809 33.2359L9.50377 16.8645L-6.75448 34.5186L11.0226 50.8901L27.2809 33.2359ZM9.45331 16.8182C10.1838 17.4834 10.8231 18.3291 11.2815 19.3361L-10.5614 29.2803C-9.63117 31.3236 -8.30232 33.1097 -6.70401 34.5648L9.45331 16.8182ZM11.2815 19.3361C11.7414 20.3464 11.9963 21.4706 12 22.6346L-11.9999 22.7096C-11.9928 24.9974 -11.4932 27.2336 -10.5614 29.2803L11.2815 19.3361ZM12 22.6346C12.0036 23.7987 11.7557 24.9252 11.3013 25.9396L-10.6017 16.1286C-11.5214 18.1818 -12.0071 20.4217 -11.9999 22.7096L12 22.6346ZM11.3013 25.9396C10.8484 26.9507 10.2132 27.8017 9.48514 28.4722L-6.77361 10.8185C-8.36453 12.2837 -9.68347 14.0786 -10.6017 16.1286L11.3013 25.9396ZM9.48514 28.4722C8.75908 29.1409 7.94951 29.6235 7.1258 29.9365L-1.39852 7.50132C-3.35026 8.24289 -5.18473 9.35521 -6.77361 10.8185L9.48514 28.4722ZM7.1258 29.9365C6.30287 30.2491 5.45094 30.3988 4.61099 30.3966L4.67347 6.39673C2.61326 6.39136 0.552435 6.76005 -1.39852 7.50132L7.1258 29.9365ZM4.61099 30.3966C3.77105 30.3945 2.9193 30.2403 2.09696 29.9229L10.7407 7.53344C8.79295 6.7815 6.73366 6.40209 4.67347 6.39673L4.61099 30.3966ZM2.09696 29.9229C1.27381 29.6051 0.465529 29.1173 -0.258033 28.4434L16.1 10.8816C14.5185 9.4085 12.6892 8.28569 10.7407 7.53344L2.09696 29.9229ZM-0.208128 28.4896L14.2958 41.8466L30.554 24.1924L16.0501 10.8354L-0.208128 28.4896ZM30.5541 41.8466L65.0596 10.0694L48.8013 -7.58474L14.2958 24.1925L30.5541 41.8466ZM65.0411 10.0864C63.5976 11.4102 61.8384 12.0016 60.19 12L60.2136 -12C56.1131 -12.004 52.0009 -10.5191 48.8198 -7.60169L65.0411 10.0864ZM60.19 12C58.5416 11.9984 56.7827 11.4035 55.3408 10.0755L71.5998 -7.57797C68.4241 -10.5028 64.3143 -11.996 60.2136 -12L60.19 12ZM55.3408 10.0755C53.866 8.71714 52.8286 6.65421 52.826 4.27183L76.826 4.24602C76.821 -0.394632 74.8085 -4.62271 71.5998 -7.57797L55.3408 10.0755ZM52.826 4.27183C52.8235 1.8893 53.8566 -0.176796 55.3299 -1.53911L71.6237 16.0822C74.8274 13.1198 76.831 8.88682 76.826 4.24602L52.826 4.27183ZM55.3476 -1.55549L17.569 33.2363L33.8273 50.8904L71.606 16.0986L55.3476 -1.55549ZM17.557 33.2474C18.2835 32.5765 19.0941 32.0918 19.9191 31.777L28.4747 54.2002C30.4231 53.4568 32.2541 52.3432 33.8393 50.8793L17.557 33.2474ZM19.9191 31.777C20.7433 31.4625 21.5967 31.3113 22.4383 31.3123L22.4116 55.3123C24.4692 55.3145 26.527 54.9434 28.4747 54.2002L19.9191 31.777Z" fill="white" mask="url(#path-1-inside-1_10_38)"/>
</svg>
