<svg width="44" height="44" viewBox="0 0 44 44" fill="none" xmlns="http://www.w3.org/2000/svg">
<path d="M21.5851 0C17.3907 0.00796932 13.289 1.23553 9.77987 3.53315C6.27069 5.83078 3.50539 9.0993 1.82081 12.9406C0.136229 16.7819 -0.394933 21.0302 0.292023 25.168C0.978979 29.3058 2.8544 33.1546 5.68986 36.2455C7.71499 38.4406 10.1728 40.1925 12.9085 41.3908C15.6442 42.589 18.5985 43.2077 21.5851 43.2077C24.5717 43.2077 27.526 42.589 30.2617 41.3908C32.9974 40.1925 35.4552 38.4406 37.4803 36.2455C40.3158 33.1546 42.1912 29.3058 42.8782 25.168C43.5651 21.0302 43.034 16.7819 41.3494 12.9406C39.6648 9.0993 36.8995 5.83078 33.3903 3.53315C29.8812 1.23553 25.7795 0.00796932 21.5851 0ZM21.5851 38.9271C17.1052 38.9203 12.8025 37.176 9.58257 34.0612C10.5602 31.6813 12.2232 29.6458 14.3603 28.2133C16.4975 26.7807 19.0123 26.0159 21.5851 26.0159C24.1579 26.0159 26.6727 26.7807 28.8099 28.2133C30.947 29.6458 32.61 31.6813 33.5876 34.0612C30.3677 37.176 26.065 38.9203 21.5851 38.9271ZM17.2599 17.3009C17.2599 16.4455 17.5135 15.6093 17.9888 14.898C18.4641 14.1867 19.1396 13.6323 19.9299 13.3049C20.7202 12.9776 21.5899 12.8919 22.4289 13.0588C23.2679 13.2257 24.0386 13.6376 24.6435 14.2425C25.2484 14.8474 25.6603 15.6181 25.8272 16.4571C25.9941 17.2961 25.9085 18.1658 25.5811 18.9561C25.2537 19.7465 24.6994 20.422 23.9881 20.8972C23.2768 21.3725 22.4406 21.6262 21.5851 21.6262C20.438 21.6262 19.3378 21.1705 18.5267 20.3593C17.7156 19.5482 17.2599 18.4481 17.2599 17.3009ZM36.5288 30.2767C34.5966 26.9716 31.6227 24.4009 28.073 22.967C29.1741 21.7184 29.8916 20.1786 30.1393 18.5324C30.387 16.8862 30.1544 15.2034 29.4695 13.6861C28.7845 12.1688 27.6763 10.8813 26.2778 9.97824C24.8793 9.07515 23.2499 8.59478 21.5851 8.59478C19.9203 8.59478 18.2909 9.07515 16.8924 9.97824C15.4939 10.8813 14.3857 12.1688 13.7007 13.6861C13.0158 15.2034 12.7832 16.8862 13.0309 18.5324C13.2786 20.1786 13.9961 21.7184 15.0972 22.967C11.5475 24.4009 8.57364 26.9716 6.64141 30.2767C5.10151 27.6536 4.28788 24.6678 4.28416 21.6262C4.28416 17.0377 6.10693 12.6371 9.35149 9.39256C12.596 6.14801 16.9966 4.32524 21.5851 4.32524C26.1736 4.32524 30.5742 6.14801 33.8187 9.39256C37.0633 12.6371 38.886 17.0377 38.886 21.6262C38.8823 24.6678 38.0687 27.6536 36.5288 30.2767Z" fill="#A09F9F"/>
</svg>
